<mxfile host="app.diagrams.net" modified="2023-03-05T14:00:57.804Z" agent="5.0 (Windows)" etag="_OsDeR2hGWRIRyJEVL0k" version="21.0.2" type="github">
  <diagram name="Page-1" id="9c096ad6-e400-ecc8-3e38-643d2caac077">
    <mxGraphModel dx="1147" dy="586" grid="1" gridSize="10" guides="1" tooltips="1" connect="1" arrows="1" fold="1" page="1" pageScale="1.5" pageWidth="1169" pageHeight="826" background="none" math="0" shadow="0">
      <root>
        <mxCell id="0" style=";html=1;" />
        <mxCell id="1" style=";html=1;" parent="0" />
        <mxCell id="dhrtzmiCeqH5ldzsOlPu-41" value="" style="rounded=0;whiteSpace=wrap;html=1;fillColor=#ffe6cc;strokeColor=#d79b00;" vertex="1" parent="1">
          <mxGeometry x="20" y="350" width="430" height="240" as="geometry" />
        </mxCell>
        <mxCell id="dhrtzmiCeqH5ldzsOlPu-45" style="edgeStyle=orthogonalEdgeStyle;rounded=0;orthogonalLoop=1;jettySize=auto;html=1;" edge="1" parent="1" source="dhrtzmiCeqH5ldzsOlPu-6" target="dhrtzmiCeqH5ldzsOlPu-10">
          <mxGeometry relative="1" as="geometry" />
        </mxCell>
        <mxCell id="dhrtzmiCeqH5ldzsOlPu-6" value="&lt;b&gt;Plane&lt;/b&gt;&lt;br&gt;&lt;div&gt;-datum&lt;/div&gt;&lt;div&gt;-elliposoide&lt;/div&gt;&lt;div&gt;-false_east&lt;/div&gt;&lt;div&gt;-false north&lt;/div&gt;&lt;div&gt;...&lt;br&gt;&lt;/div&gt;" style="rounded=0;html=1;fillColor=#dae8fc;strokeColor=#6c8ebf;whiteSpace=wrap;" vertex="1" parent="1">
          <mxGeometry x="500" y="390" width="160" height="150" as="geometry" />
        </mxCell>
        <mxCell id="dhrtzmiCeqH5ldzsOlPu-3" style="edgeStyle=orthogonalEdgeStyle;rounded=0;orthogonalLoop=1;jettySize=auto;html=1;exitX=1;exitY=0.5;exitDx=0;exitDy=0;entryX=0;entryY=0.5;entryDx=0;entryDy=0;" edge="1" parent="1" source="dhrtzmiCeqH5ldzsOlPu-2" target="dhrtzmiCeqH5ldzsOlPu-4">
          <mxGeometry relative="1" as="geometry">
            <mxPoint x="290" y="469.79999999999995" as="targetPoint" />
            <Array as="points">
              <mxPoint x="210" y="470" />
              <mxPoint x="210" y="470" />
            </Array>
          </mxGeometry>
        </mxCell>
        <mxCell id="dhrtzmiCeqH5ldzsOlPu-2" value="&lt;div&gt;&lt;b&gt;Cartesien&lt;/b&gt;&lt;/div&gt;&lt;div&gt;-datum&lt;/div&gt;" style="rounded=0;whiteSpace=wrap;html=1;fillColor=#f8cecc;strokeColor=#b85450;" vertex="1" parent="1">
          <mxGeometry x="40" y="440" width="120" height="60" as="geometry" />
        </mxCell>
        <mxCell id="dhrtzmiCeqH5ldzsOlPu-4" value="&lt;div&gt;&lt;b&gt;Geographic&lt;/b&gt;&lt;/div&gt;&lt;div&gt;-datum&lt;/div&gt;&lt;div&gt;-ellpsoide&lt;/div&gt;&lt;div&gt;&lt;br&gt;&lt;/div&gt;&lt;div&gt;-def syst_transforamtion&lt;br&gt;&lt;/div&gt;" style="rounded=0;whiteSpace=wrap;html=1;fillColor=#f8cecc;strokeColor=#b85450;" vertex="1" parent="1">
          <mxGeometry x="250" y="420" width="160" height="100" as="geometry" />
        </mxCell>
        <mxCell id="dhrtzmiCeqH5ldzsOlPu-5" style="edgeStyle=orthogonalEdgeStyle;rounded=0;orthogonalLoop=1;jettySize=auto;html=1;exitX=1;exitY=0.5;exitDx=0;exitDy=0;" edge="1" parent="1">
          <mxGeometry relative="1" as="geometry">
            <mxPoint x="500" y="469.99999999999994" as="targetPoint" />
            <mxPoint x="410" y="470.2" as="sourcePoint" />
            <Array as="points">
              <mxPoint x="480" y="470" />
              <mxPoint x="480" y="470" />
            </Array>
          </mxGeometry>
        </mxCell>
        <mxCell id="dhrtzmiCeqH5ldzsOlPu-44" style="edgeStyle=orthogonalEdgeStyle;rounded=0;orthogonalLoop=1;jettySize=auto;html=1;entryX=0;entryY=0.5;entryDx=0;entryDy=0;" edge="1" parent="1" source="dhrtzmiCeqH5ldzsOlPu-7" target="dhrtzmiCeqH5ldzsOlPu-10">
          <mxGeometry relative="1" as="geometry" />
        </mxCell>
        <mxCell id="dhrtzmiCeqH5ldzsOlPu-7" value="&lt;div&gt;&lt;b&gt;Geoid&lt;/b&gt;&lt;/div&gt;&lt;div&gt;-Grille Altimétrique&lt;br&gt;&lt;/div&gt;" style="rounded=0;whiteSpace=wrap;html=1;fillColor=#dae8fc;strokeColor=#6c8ebf;" vertex="1" parent="1">
          <mxGeometry x="500" y="570" width="160" height="120" as="geometry" />
        </mxCell>
        <mxCell id="dhrtzmiCeqH5ldzsOlPu-10" value="&lt;div&gt;&lt;b&gt;Point&lt;/b&gt;&lt;/div&gt;&lt;div&gt;&lt;div&gt;-datum&lt;/div&gt;&lt;div&gt;-elliposoide&lt;/div&gt;&lt;div&gt;-false_east&lt;/div&gt;&lt;div&gt;-false north&lt;/div&gt;...&lt;/div&gt;&lt;div&gt;-Grille Altimétrique&lt;/div&gt;&lt;div&gt;-ID_point&lt;/div&gt;&lt;div&gt;-local_coordinates&lt;/div&gt;&lt;div&gt;-geo_coordinates&lt;/div&gt;&lt;div&gt;-carte_coordinates&lt;br&gt;&lt;/div&gt;" style="rounded=0;whiteSpace=wrap;html=1;fillColor=#d5e8d4;strokeColor=#82b366;" vertex="1" parent="1">
          <mxGeometry x="877" y="460" width="120" height="170" as="geometry" />
        </mxCell>
        <mxCell id="dhrtzmiCeqH5ldzsOlPu-37" value="&lt;div&gt;&lt;b&gt;Baseline&lt;/b&gt;&lt;/div&gt;&lt;div&gt;pt1&lt;/div&gt;&lt;div&gt;pt2&lt;/div&gt;&lt;div&gt;delta ; [East, North, alt]&lt;br&gt;&lt;/div&gt;" style="rounded=0;whiteSpace=wrap;html=1;fillColor=#d5e8d4;strokeColor=#82b366;" vertex="1" parent="1">
          <mxGeometry x="877" y="280" width="120" height="120" as="geometry" />
        </mxCell>
        <mxCell id="dhrtzmiCeqH5ldzsOlPu-39" value="&lt;div&gt;&lt;b&gt;GnssObservations&lt;/b&gt;&lt;/div&gt;&lt;div&gt;ID_station&lt;/div&gt;&lt;div&gt;sat_observés&lt;/div&gt;&lt;div&gt;pseudo_dist&lt;/div&gt;&lt;div&gt;type = &quot;base ou mobile&quot;&lt;/div&gt;&lt;div&gt;observation_range&lt;br&gt;&lt;/div&gt;&lt;div&gt;&lt;br&gt;&lt;/div&gt;&lt;div&gt;-def baseline_processing&lt;br&gt;&lt;/div&gt;&lt;div&gt;&lt;b&gt;&lt;br&gt;&lt;/b&gt;&lt;/div&gt;" style="rounded=0;whiteSpace=wrap;html=1;fillColor=#dae8fc;strokeColor=#6c8ebf;" vertex="1" parent="1">
          <mxGeometry x="500" y="210" width="150" height="150" as="geometry" />
        </mxCell>
        <mxCell id="dhrtzmiCeqH5ldzsOlPu-43" value="&lt;div&gt;&lt;b&gt;Antenna&lt;/b&gt;&lt;/div&gt;&lt;div&gt;Antenna_name&lt;br&gt;&lt;/div&gt;" style="rounded=0;whiteSpace=wrap;html=1;fillColor=#dae8fc;strokeColor=#6c8ebf;" vertex="1" parent="1">
          <mxGeometry x="500" y="730" width="150" height="120" as="geometry" />
        </mxCell>
        <mxCell id="dhrtzmiCeqH5ldzsOlPu-47" value="pas mal pour épurer le stockage dedonnées" style="text;html=1;strokeColor=none;fillColor=none;spacing=5;spacingTop=-20;whiteSpace=wrap;overflow=hidden;rounded=0;" vertex="1" parent="1">
          <mxGeometry x="150" y="380" width="310" height="50" as="geometry" />
        </mxCell>
        <object label="parent classes" id="dhrtzmiCeqH5ldzsOlPu-36">
          <mxCell parent="0" />
        </object>
      </root>
    </mxGraphModel>
  </diagram>
</mxfile>
